<svg
      aria-hidden="true"
      style="position: absolute; width: 0; height: 0; overflow: hidden;"
      version="1.1"
      xmlns="http://www.w3.org/2000/svg"
      xmlns:xlink="http://www.w3.org/1999/xlink"
    >
      <defs>
        <symbol id="bp0" viewBox="0 0 60 96">
          <path
            d="M9 0h42a9 9 0 019 9v78a9 9 0 01-9 9H9a9 9 0 01-9-9V9a9 9 0 019-9zM6 18v60h48V18H6zm24 75a6 6 0 100-12 6 6 0 000 12zM24 6v6h12V6H24z"
          />
        </symbol>

        <symbol id="bp1" viewBox="0 0 42 66">
          <path
            d="M4.5 0h33A4.5 4.5 0 0142 4.5v57a4.5 4.5 0 01-4.5 4.5h-33A4.5 4.5 0 010 61.5v-57A4.5 4.5 0 014.5 0zM3 9v48h36V9H3zm18 55.5a3 3 0 100-6 3 3 0 000 6zM21 6a1.5 1.5 0 10-.001-3.001A1.5 1.5 0 0021 6z"
          />
        </symbol>

        <symbol id="bp2" viewBox="0 0 66 42">
          <path
            d="M66 4.5v33a4.5 4.5 0 01-4.5 4.5h-57A4.5 4.5 0 010 37.5v-33A4.5 4.5 0 014.5 0h57A4.5 4.5 0 0166 4.5zM57 3H9v36h48V3zM1.5 21a3 3 0 106 0 3 3 0 00-6 0zM60 21a1.5 1.5 0 103.001-.001A1.5 1.5 0 0060 21z"
          />
        </symbol>

        <symbol id="bp3" viewBox="0 0 95 55">
          <path
            d="M85 56h10v2.5c-3.332 1.668-6.667 2.5-10 2.5H10c-3.333 0-6.667-.832-10-2.5V56h10V9.75A3.75 3.75 0 0113.75 6h67.5A3.75 3.75 0 0185 9.75V56zM15 11v45h65V11H15z"
          />
        </symbol>

        <symbol id="bp4" viewBox="0 0 90 70">
          <path
            d="M52.143 60l2.142 7.5H60V70H30v-2.5h5.715l2.142-7.5H3.75A3.75 3.75 0 010 56.25V3.75A3.75 3.75 0 013.75 0h82.5A3.75 3.75 0 0190 3.75v52.5A3.75 3.75 0 0186.25 60H52.143zM5 5v45h80V5H5z"
          />
        </symbol>

        <symbol id="icon-copy" viewBox="0 0 24 24">
          <path
            d="M18.984 21v-14.016h-10.969v14.016h10.969zM18.984 5.016q0.797 0 1.406 0.586t0.609 1.383v14.016q0 0.797-0.609 1.406t-1.406 0.609h-10.969q-0.797 0-1.406-0.609t-0.609-1.406v-14.016q0-0.797 0.609-1.383t1.406-0.586h10.969zM15.984 0.984v2.016h-12v14.016h-1.969v-14.016q0-0.797 0.586-1.406t1.383-0.609h12z"
          ></path>
        </symbol>

        <symbol id="icon-github" viewBox="0 0 64 64">
          <path
            d="M32 0 C14 0 0 14 0 32 0 53 19 62 22 62 24 62 24 61 24 60 L24 55 C17 57 14 53 13 50 13 50 13 49 11 47 10 46 6 44 10 44 13 44 15 48 15 48 18 52 22 51 24 50 24 48 26 46 26 46 18 45 12 42 12 31 12 27 13 24 15 22 15 22 13 18 15 13 15 13 20 13 24 17 27 15 37 15 40 17 44 13 49 13 49 13 51 20 49 22 49 22 51 24 52 27 52 31 52 42 45 45 38 46 39 47 40 49 40 52 L40 60 C40 61 40 62 42 62 45 62 64 53 64 32 64 14 50 0 32 0 Z"
          />
        </symbol>
      </defs>
    </svg>
