<svg xmlns="http://www.w3.org/2000/svg" viewBox="0 0 122 148"><path d="M1.867 16S0 16 0 18s1.867 2 1.867 2l106.4 2S112 22 112 18s-3.733-4-3.733-4l-106.4 2z" fill="url(#prtcls-gradient)"/><path d="M1.867 72S0 72 0 74s1.867 2 1.867 2l106.4 2S112 78 112 74s-3.733-4-3.733-4l-106.4 2z" fill="url(#prtcls-gradient)"/><path d="M2 2S0 2 0 4s2 2 2 2l90 2s4 0 4-4-4-4-4-4L2 2z" fill="url(#prtcls-gradient)"/><path d="M2 86s-2 0-2 2 2 2 2 2l90 2s4 0 4-4-4-4-4-4L2 86z" fill="url(#prtcls-gradient)"/><path d="M2 100s-2 0-2 2 2 2 2 2l42 2s4 0 4-4-4-4-4-4l-42 2z" fill="url(#prtcls-gradient)"/><path d="M2 114s-2 0-2 2 2 2 2 2l42 2s4 0 4-4-4-4-4-4l-42 2z" fill="url(#prtcls-gradient)"/><path d="M2 128s-2 0-2 2 2 2 2 2l42 2s4 0 4-4-4-4-4-4l-42 2z" fill="url(#prtcls-gradient)"/><path d="M2 142s-2 0-2 2 2 2 2 2l42 2s4 0 4-4-4-4-4-4l-42 2z" fill="url(#prtcls-gradient)"/><path d="M1.818 30S0 30 0 32s1.818 2 1.818 2l114.546 2S120 36 120 32s-3.636-4-3.636-4L1.818 30z" fill="url(#prtcls-gradient)"/><path d="M1.818 58S0 58 0 60s1.818 2 1.818 2l114.546 2S120 64 120 60s-3.636-4-3.636-4L1.818 58z" fill="url(#prtcls-gradient)"/><path d="M1.82 44S0 44 0 46s1.82 2 1.82 2l116.538 2S122 50 122 46s-3.642-4-3.642-4L1.821 44z" fill="url(#prtcls-gradient)"/><defs><linearGradient id="prtcls-gradient" ><stop stop-color="#DE8545"/><stop offset="25%" stop-color="#DE45AB"/><stop offset="75%" stop-color="#9145DE"/></linearGradient></defs></svg>
