<?xml version="1.0" standalone="no"?>
<!DOCTYPE svg PUBLIC "-//W3C//DTD SVG 20010904//EN"
 "http://www.w3.org/TR/2001/REC-SVG-20010904/DTD/svg10.dtd">
<svg version="1.0" xmlns="http://www.w3.org/2000/svg"
 width="528.000000pt" height="528.000000pt" viewBox="0 0 528.000000 528.000000"
 preserveAspectRatio="xMidYMid meet">
<metadata>
Created by potrace 1.11, written by Peter Selinger 2001-2013
</metadata>
<g transform="translate(0.000000,528.000000) scale(0.100000,-0.100000)"
fill="#000000" stroke="none">
<path d="M54 5269 c-11 -6 -28 -23 -37 -39 -16 -26 -17 -215 -17 -2590 0
-2393 1 -2564 17 -2591 9 -15 30 -33 46 -39 43 -15 5127 -14 5160 1 13 6 31
23 40 39 16 26 17 218 17 2590 0 2372 -1 2564 -17 2590 -9 16 -27 33 -40 39
-32 15 -5139 14 -5169 0z"/>
</g>
</svg>
